<?xml version="1.0" standalone="no"?>
<!DOCTYPE svg PUBLIC "-//W3C//DTD SVG 20010904//EN"
 "http://www.w3.org/TR/2001/REC-SVG-20010904/DTD/svg10.dtd">
<svg version="1.0" xmlns="http://www.w3.org/2000/svg"
 width="353.000000pt" height="144.000000pt" viewBox="0 0 353.000000 144.000000"
 preserveAspectRatio="xMidYMid meet">

<g transform="translate(0.000000,144.000000) scale(0.100000,-0.100000)"
fill="#000000" stroke="none">
<path d="M675 1403 c-27 -8 -57 -21 -66 -29 -23 -20 -37 -76 -49 -188 -5 -53
-14 -105 -19 -114 -4 -9 -11 -49 -14 -88 -20 -252 -185 -616 -308 -679 -55
-29 -157 -8 -160 33 -4 48 5 120 17 143 14 27 91 79 118 79 18 0 46 -27 46
-45 0 -7 -11 -26 -24 -42 -18 -22 -22 -33 -15 -46 16 -28 45 -20 73 21 45 65
31 134 -34 167 -40 21 -63 19 -123 -10 -43 -20 -57 -33 -79 -77 -51 -101 -44
-195 21 -259 46 -47 100 -63 150 -45 57 19 130 74 165 123 45 63 106 172 106
189 0 8 9 32 20 54 34 66 80 244 90 347 5 54 16 125 24 158 8 33 13 81 10 107
-5 65 8 94 55 118 59 30 105 26 152 -11 43 -34 79 -94 79 -131 0 -37 -44 -120
-89 -170 -27 -29 -73 -63 -123 -88 -84 -44 -94 -55 -84 -95 9 -34 37 -32 105
5 61 34 102 37 160 14 30 -12 43 -25 55 -55 47 -116 -15 -228 -164 -297 -69
-32 -77 -34 -110 -22 -42 15 -70 38 -70 58 0 12 -3 12 -15 2 -21 -17 -19 -63
4 -92 21 -26 79 -48 130 -48 17 0 64 15 103 34 85 39 162 110 189 174 24 56
26 170 3 219 -19 40 -91 113 -111 113 -15 0 -18 16 -4 24 15 10 67 107 87 162
15 45 16 56 4 97 -7 26 -16 47 -19 47 -4 0 -20 22 -35 49 -28 47 -62 75 -121
98 -39 15 -69 14 -130 -4z"/>
<path d="M1975 1265 c-19 -18 -25 -35 -25 -67 0 -24 -5 -70 -10 -103 -6 -33
-15 -112 -20 -175 -5 -63 -16 -171 -25 -240 -20 -150 -25 -244 -14 -262 5 -7
28 -14 51 -15 24 -1 57 -4 75 -8 40 -9 123 18 164 52 16 14 41 45 55 70 24 39
26 52 22 111 -7 102 -58 185 -122 197 -17 4 -40 9 -50 12 -20 6 -20 6 0 22 37
31 82 96 93 136 31 113 -14 232 -106 279 -43 22 -60 20 -88 -9z m96 -96 c25
-27 29 -39 29 -86 0 -39 -6 -66 -22 -92 -28 -47 -69 -92 -79 -85 -15 9 18 294
34 294 5 0 22 -14 38 -31z m54 -431 c31 -24 55 -74 55 -114 0 -37 -39 -102
-75 -124 -39 -24 -99 -40 -125 -33 -17 5 -20 13 -20 67 0 108 16 177 47 203
36 28 83 29 118 1z"/>
<path d="M2747 933 c-4 -3 -7 -29 -7 -57 0 -28 -7 -80 -15 -115 -9 -35 -22
-98 -31 -140 -8 -42 -22 -95 -31 -119 -20 -53 -7 -92 31 -92 21 0 27 7 39 53
8 28 18 72 21 96 9 62 41 147 78 208 33 55 43 61 136 79 l32 7 0 -67 c0 -39
-11 -106 -26 -163 -37 -142 -24 -233 34 -233 56 1 84 52 38 70 -37 14 -40 51
-11 133 34 95 45 239 22 283 -25 48 -62 59 -131 39 -32 -9 -73 -30 -92 -47
l-34 -30 0 29 c0 43 -34 86 -53 66z"/>
<path d="M3345 916 c-16 -8 -52 -37 -80 -65 -47 -49 -50 -55 -50 -105 0 -41 6
-61 28 -92 129 -183 133 -200 61 -263 -26 -23 -51 -41 -56 -41 -4 0 -25 -11
-46 -25 -20 -13 -55 -26 -77 -29 -215 -27 -229 -28 -375 -12 -80 9 -233 23
-340 31 -107 8 -238 20 -290 25 -52 5 -138 10 -190 10 -52 0 -142 4 -200 10
-58 5 -285 11 -505 12 -371 2 -407 0 -495 -19 -53 -11 -117 -30 -142 -42 -26
-11 -51 -21 -56 -21 -4 0 -18 -9 -30 -20 -19 -18 -22 -32 -22 -90 0 -63 3 -72
31 -105 47 -53 83 -68 160 -67 129 2 202 89 154 182 -19 36 -43 50 -90 50 -77
0 -135 -48 -104 -86 13 -16 26 -15 85 4 41 13 60 2 45 -26 -25 -46 -123 -56
-170 -16 -78 65 -13 125 175 160 128 23 703 20 1124 -6 173 -11 333 -22 355
-25 22 -2 115 -9 207 -15 91 -5 202 -17 245 -25 203 -39 516 -4 595 67 17 15
37 28 43 28 31 0 95 99 95 146 0 57 -40 148 -90 204 -60 67 -66 106 -22 147
51 47 132 60 152 23 6 -11 20 -20 30 -20 28 0 28 68 -1 104 -17 22 -28 26 -72
26 -29 -1 -65 -7 -82 -14z"/>
<path d="M1629 900 c-19 -9 -54 -30 -79 -48 l-45 -31 -6 33 c-7 43 -16 56 -40
56 -10 0 -19 -1 -20 -2 0 -2 -7 -52 -14 -113 -8 -60 -23 -148 -35 -195 -32
-125 -34 -154 -16 -169 19 -16 57 -11 66 9 5 8 13 49 19 91 13 84 42 168 72
211 24 33 97 78 128 78 30 0 36 -22 23 -83 -40 -192 -42 -231 -16 -289 15 -33
21 -38 51 -38 27 0 37 6 53 33 31 49 27 67 -15 67 -42 0 -42 3 -13 113 12 45
22 112 22 149 1 63 -1 69 -33 102 -42 43 -59 48 -102 26z"/>
<path d="M2445 896 c-44 -19 -91 -62 -103 -93 -23 -63 -47 -192 -46 -248 2
-88 27 -136 83 -154 60 -19 110 -1 176 64 59 58 79 91 94 157 21 92 10 160
-39 231 -39 57 -98 72 -165 43z m125 -98 c30 -50 27 -132 -8 -199 -46 -88
-142 -145 -180 -107 -19 19 -14 122 9 212 27 100 50 126 115 126 39 0 47 -4
64 -32z"/>
<path d="M1195 883 c-73 -26 -105 -70 -150 -209 -41 -125 -30 -191 38 -233 76
-47 152 -9 229 115 77 122 76 281 -1 327 -34 20 -61 20 -116 0z m111 -78 c12
-19 15 -36 9 -70 -7 -51 -64 -167 -99 -203 -31 -31 -90 -40 -116 -17 -27 25
-24 62 13 175 27 80 37 98 66 117 48 32 105 31 127 -2z"/>
</g>
</svg>
